subject_08
version=1
nRows=255
nColumns=3
inDegrees=yes
endheader
time	r_shoulder_elev	r_elbow_flex
0.0000	14.125529	17.739285
0.0100	14.125529	17.739328
0.0200	14.125529	17.740377
0.0300	14.125529	17.743148
0.0400	14.125529	17.748165
0.0500	14.125529	17.755864
0.0600	14.125529	17.766745
0.0700	14.125529	17.781501
0.0800	14.125529	17.801035
0.0900	14.125529	17.826368
0.1000	14.125529	17.858442
0.1100	14.125529	17.897934
0.1200	14.125529	17.945151
0.1300	14.125529	18.000084
0.1400	14.125529	18.062603
0.1500	14.125529	18.132729
0.1600	14.125529	18.210860
0.1700	14.125529	18.297849
0.1800	14.125529	18.394884
0.1900	14.125529	18.503200
0.2000	14.125529	18.623741
0.2100	14.125529	18.756904
0.2200	14.125529	18.902483
0.2300	14.125529	19.059846
0.2400	14.125529	19.228291
0.2500	14.125529	19.407431
0.2600	14.125529	19.597464
0.2700	14.125529	19.799212
0.2800	14.125529	20.013906
0.2900	14.125529	20.242799
0.3000	14.125529	20.486766
0.3100	14.125529	20.746041
0.3200	14.125529	21.020214
0.3300	14.125529	21.308469
0.3400	14.125529	21.609978
0.3500	14.125529	21.924280
0.3600	14.125529	22.251503
0.3700	14.125529	22.592319
0.3800	14.125529	22.947685
0.3900	14.125529	23.318448
0.4000	14.125529	23.705005
0.4100	14.125529	24.107149
0.4200	14.125529	24.524165
0.4300	14.125529	24.955129
0.4400	14.125529	25.399304
0.4500	14.125529	25.856440
0.4600	14.125529	26.326887
0.4700	14.125529	26.811446
0.4800	14.125529	27.311048
0.4900	14.125529	27.826358
0.5000	14.125529	28.357493
0.5100	14.125529	28.903928
0.5200	14.125529	29.464651
0.5300	14.125529	30.038475
0.5400	14.125529	30.624403
0.5500	14.125529	31.221904
0.5600	14.125529	31.831006
0.5700	14.125529	32.452195
0.5800	14.125529	33.086165
0.5900	14.125529	33.733535
0.6000	14.125529	34.394611
0.6100	14.125529	35.069286
0.6200	14.125529	35.757072
0.6300	14.125529	36.457232
0.6400	14.125529	37.168952
0.6500	14.125529	37.891492
0.6600	14.125529	38.624274
0.6700	14.125529	39.366921
0.6800	14.125529	40.119225
0.6900	14.125529	40.881115
0.7000	14.125529	41.652586
0.7100	14.125529	42.433639
0.7200	14.125529	43.224207
0.7300	14.125529	44.024092
0.7400	14.125529	44.832929
0.7500	14.125529	45.650207
0.7600	14.125529	46.475353
0.7700	14.125529	47.307860
0.7800	14.125529	48.147422
0.7900	14.125529	48.993993
0.8000	14.125529	49.847720
0.8100	14.125529	50.708747
0.8200	14.125529	51.576937
0.8300	14.125529	52.451627
0.8400	14.125529	53.331556
0.8500	14.125529	54.215029
0.8600	14.125529	55.100343
0.8700	14.125529	55.986327
0.8800	14.125529	56.872815
0.8900	14.125529	57.760822
0.9000	14.125529	58.652291
0.9100	14.125529	59.549432
0.9200	14.125529	60.453830
0.9300	14.125529	61.365641
0.9400	14.125529	62.283190
0.9500	14.125529	63.203184
0.9600	14.125529	64.121526
0.9700	14.125529	65.034499
0.9800	14.125529	65.939912
0.9900	14.125529	66.837791
1.0000	14.125529	67.730343
1.0100	14.125529	68.621151
1.0200	14.125529	69.513896
1.0300	14.125529	70.411024
1.0400	14.125529	71.312857
1.0500	14.125529	72.217462
1.0600	14.125529	73.121306
1.0700	14.125529	74.020429
1.0800	14.125529	74.911678
1.0900	14.125529	75.793522
1.1000	14.125529	76.666169
1.1100	14.125529	77.530987
1.1200	14.125529	78.389538
1.1300	14.125529	79.242685
1.1400	14.125529	80.090179
1.1500	14.125529	80.930917
1.1600	14.125529	81.763723
1.1700	14.125529	82.588248
1.1800	14.125529	83.405490
1.1900	14.125529	84.217586
1.2000	14.125529	85.026854
1.2100	14.125529	85.834413
1.2200	14.125529	86.639007
1.2300	14.125529	87.436625
1.2400	14.125529	88.221263
1.2500	14.125529	88.986727
1.2600	14.125529	89.728879
1.2700	14.125529	90.447493
1.2800	14.125529	91.146892
1.2900	14.125529	91.834967
1.3000	14.125529	92.520727
1.3100	14.125529	93.211173
1.3200	14.125529	93.908569
1.3300	14.125529	94.609180
1.3400	14.125529	95.304027
1.3500	14.125529	95.981548
1.3600	14.125529	96.631297
1.3700	14.125529	97.247424
1.3800	14.125529	97.830685
1.3900	14.125529	98.388236
1.4000	14.125529	98.931246
1.4100	14.125529	99.471120
1.4200	14.125529	100.015672
1.4300	14.125529	100.566568
1.4400	14.125529	101.118919
1.4500	14.125529	101.663125
1.4600	14.125529	102.188245
1.4700	14.125529	102.685688
1.4800	14.125529	103.151890
1.4900	14.125529	103.589114
1.5000	14.125529	104.004181
1.5100	14.125529	104.405731
1.5200	14.125529	104.801086
1.5300	14.125529	105.193870
1.5400	14.125529	105.583182
1.5500	14.125529	105.964483
1.5600	14.125529	106.331693
1.5700	14.125529	106.679614
1.5800	14.125529	107.005716
1.5900	14.125529	107.310699
1.6000	14.125529	107.597742
1.6100	14.125529	107.870918
1.6200	14.125529	108.133483
1.6300	14.125529	108.386771
1.6400	14.125529	108.630059
1.6500	14.125529	108.861323
1.6600	14.125529	109.078450
1.6700	14.125529	109.280285
1.6800	14.125529	109.467078
1.6900	14.125529	109.640172
1.7000	14.125529	109.801199
1.7100	14.125529	109.951226
1.7200	14.125529	110.090330
1.7300	14.125529	110.217825
1.7400	14.125529	110.333000
1.7500	14.125529	110.435972
1.7600	14.125529	110.528153
1.7700	14.125529	110.612013
1.7800	14.125529	110.690152
1.7900	14.125529	110.764085
1.8000	14.125529	110.833319
1.8100	14.125529	110.895261
1.8200	14.125529	110.946142
1.8300	14.125529	110.982691
1.8400	14.125529	111.003904
1.8500	14.125529	111.012125
1.8600	14.125529	111.012851
1.8700	14.125529	111.013199
1.8800	14.125529	111.019506
1.8900	14.125529	111.034984
1.9000	14.125529	111.058399
1.9100	14.125529	111.084406
1.9200	14.125529	111.105545
1.9300	14.125529	111.115215
1.9400	14.125529	111.110208
1.9500	14.125529	111.092152
1.9600	14.125529	111.067520
1.9700	14.125529	111.045380
1.9800	14.125529	111.034029
1.9900	14.125529	111.037820
2.0000	14.125529	111.055433
2.0100	14.125529	111.080296
2.0200	14.125529	111.103062
2.0300	14.125529	111.115190
2.0400	14.125529	111.112276
2.0500	14.125529	111.095799
2.0600	14.125529	111.072586
2.0700	14.125529	111.052170
2.0800	14.125529	111.043058
2.0900	14.125529	111.049353
2.1000	14.125529	111.069081
2.1100	14.125529	111.094881
2.1200	14.125529	111.116823
2.1300	14.125529	111.126261
2.1400	14.125529	111.118952
2.1500	14.125529	111.095855
2.1600	14.125529	111.063184
2.1700	14.125529	111.029772
2.1800	14.125529	111.003147
2.1900	14.125529	110.986142
2.2000	14.125529	110.975313
2.2100	14.125529	110.961767
2.2200	14.125529	110.934044
2.2300	14.125529	110.881940
2.2400	14.125529	110.799791
2.2500	14.125529	110.688015
2.2600	14.125529	110.552351
2.2700	14.125529	110.401192
2.2800	14.125529	110.242058
2.2900	14.125529	110.078600
2.3000	14.125529	109.909218
2.3100	14.125529	109.727759
2.3200	14.125529	109.525894
2.3300	14.125529	109.296184
2.3400	14.125529	109.034610
2.3500	14.125529	108.741621
2.3600	14.125529	108.421386
2.3700	14.125529	108.079651
2.3800	14.125529	107.721140
2.3900	14.125529	107.347549
2.4000	14.125529	106.956913
2.4100	14.125529	106.544510
2.4200	14.125529	106.104883
2.4300	14.125529	105.634086
2.4400	14.125529	105.131254
2.4500	14.125529	104.598905
2.4600	14.125529	104.041874
2.4700	14.125529	103.465383
2.4800	14.125529	102.873019
2.4900	14.125529	102.265406
2.5000	14.125529	101.640051
2.5100	14.125529	100.992370
2.5200	14.125529	100.317426
2.5300	14.125529	99.611725
2.5400	14.125529	98.874399
